<svg xmlns="http://www.w3.org/2000/svg" width="1100" height="700" viewBox="0 0 1100 700">
  <style>
    .room { fill:#fff6e6; stroke:#cf6900; stroke-width:2 }
    .label { font: 14px 'Segoe UI', Arial; fill:#333 }
    .title { font: 20px 'Segoe UI', Arial; font-weight:700 }
  </style>
  <rect x="20" y="20" width="1060" height="660" rx="12" fill="#f8f7f3" stroke="#ddd"/>
  <text x="70" y="55" class="title">Museum of Computation — Floor Map</text>

  <!-- Entrance -->
  <rect x="60" y="100" width="220" height="120" rx="8" class="room"/>
  <text x="170" y="155" class="label" text-anchor="middle">Entrance / Info</text>

  <!-- Logic Gates Hall -->
  <rect x="320" y="100" width="360" height="200" rx="8" class="room"/>
  <text x="500" y="135" class="label" text-anchor="middle">Logic Gates Hall</text>
  <text x="500" y="160" class="label" text-anchor="middle">`museum/builds/logic-gates.json`</text>

  <!-- Binary Counter -->
  <rect x="320" y="320" width="220" height="140" rx="8" class="room"/>
  <text x="430" y="380" class="label" text-anchor="middle">Binary Counter</text>
  <text x="430" y="400" class="label" text-anchor="middle">`museum/builds/binary-counter.json`</text>

  <!-- Quantum Gallery -->
  <rect x="560" y="320" width="420" height="240" rx="8" class="room"/>
  <text x="770" y="360" class="label" text-anchor="middle">Quantum Gallery</text>
  <text x="770" y="385" class="label" text-anchor="middle">(Quantum-Redstone exhibits & datapacks)</text>
  <text x="770" y="405" class="label" text-anchor="middle">`server-suite/python-scripts/quantum_circuit_generator.py`</text>

  <!-- Workshop / Import Station -->
  <rect x="60" y="260" width="220" height="200" rx="8" class="room"/>
  <text x="170" y="320" class="label" text-anchor="middle">Workshop / Import Station</text>
  <text x="170" y="340" class="label" text-anchor="middle">WorldEdit / Litematica / Datapacks</text>

  <!-- Legend -->
  <rect x="60" y="500" width="920" height="140" rx="8" fill="#e9f7ff" stroke="#9cc7e6"/>
  <text x="80" y="530" class="label">Legend:</text>
  <text x="80" y="555" class="label">• Logic Gates — digital logic exhibits (Redstone)</text>
  <text x="80" y="580" class="label">• Binary Counter — example educational piece</text>
  <text x="80" y="605" class="label">• Quantum Gallery — Quantum-Redstone mapping + circuit builds</text>

  <!-- footer -->
  <text x="880" y="690" class="label" text-anchor="end">Generated by GitHub Copilot</text>
</svg>