<svg xmlns="http://www.w3.org/2000/svg" width="900" height="240" viewBox="0 0 900 240">
  <defs>
    <style> .node { fill:#fff; stroke:#333; stroke-width:1.5 } .label { font: 14px 'Segoe UI', Arial; fill:#111 }</style>
  </defs>
  <rect x="20" y="40" width="150" height="60" rx="8" class="node"/>
  <text x="95" y="75" class="label" text-anchor="middle">Quantum Theory</text>

  <rect x="210" y="40" width="170" height="60" rx="8" class="node"/>
  <text x="295" y="75" class="label" text-anchor="middle">quantum-redstone</text>

  <rect x="420" y="40" width="210" height="60" rx="8" class="node"/>
  <text x="525" y="60" class="label" text-anchor="middle">quantum_circuit_generator.py</text>
  <text x="525" y="78" class="label" text-anchor="middle">(exports JSON / mcfunctions)</text>

  <rect x="660" y="40" width="160" height="60" rx="8" class="node"/>
  <text x="740" y="75" class="label" text-anchor="middle">MC Datapacks / Museum</text>

  <!-- arrows -->
  <defs>
    <marker id="arrow" markerWidth="10" markerHeight="10" refX="8" refY="5" orient="auto">
      <path d="M0,0 L10,5 L0,10 z" fill="#333"/>
    </marker>
  </defs>

  <line x1="170" y1="70" x2="210" y2="70" stroke="#333" stroke-width="2" marker-end="url(#arrow)" />
  <line x1="380" y1="70" x2="420" y2="70" stroke="#333" stroke-width="2" marker-end="url(#arrow)" />
  <line x1="630" y1="70" x2="660" y2="70" stroke="#333" stroke-width="2" marker-end="url(#arrow)" />

  <!-- PythonBridge connection -->
  <rect x="420" y="135" width="200" height="50" rx="6" class="node"/>
  <text x="520" y="165" class="label" text-anchor="middle">PythonBridge / ClaudeNPC</text>
  <line x1="525" y1="100" x2="525" y2="135" stroke="#333" stroke-width="2" marker-end="url(#arrow)" />

</svg>